<svg xmlns="http://www.w3.org/2000/svg" xmlns:xlink="http://www.w3.org/1999/xlink" width="180" height="180" viewBox="0 0 90.71 90.71"><defs><style>.cls-1{fill:url(#Unbenannter_Verlauf_35);}.cls-2{fill:#fff;}</style><linearGradient id="Unbenannter_Verlauf_35" x1="70.19" y1="-3.25" x2="34.91" y2="65.8" gradientUnits="userSpaceOnUse"><stop offset="0" stop-color="#f12967"/><stop offset="0.15" stop-color="#d52a65"/><stop offset="0.48" stop-color="#8e2c5f"/><stop offset="0.97" stop-color="#1c2f57"/><stop offset="1" stop-color="#142f56"/></linearGradient></defs><title>andock_logo_rgb_figure</title><g id="Ebene_2" data-name="Ebene 2"><g id="Ebene_1-2" data-name="Ebene 1"><circle class="cls-1" cx="45.35" cy="45.35" r="45.35"/><path class="cls-2" d="M69.16,56.88a29.33,29.33,0,0,0-23.65-46.7,2.38,2.38,0,0,0-1.21.55L16,67.43a1,1,0,0,0,0,1,1,1,0,0,0,.85.47H73.54a1,1,0,0,0,.85-.47,1,1,0,0,0,0-1Zm3.7-17.35a27.15,27.15,0,0,1-4.71,15.31L46.83,12.22A27.37,27.37,0,0,1,72.86,39.53ZM46.51,16.05l20.3,40.6a27.3,27.3,0,0,1-20.3,10.21Zm-2-1.26V66.87h-26ZM56.14,66.87A29.43,29.43,0,0,0,67.79,58.6l4.14,8.27Z"/></g></g></svg>